<svg version="1.1" xmlns="http://www.w3.org/2000/svg" xmlns:xlink="http://www.w3.org/1999/xlink" width="36.36645" height="35.68029" viewBox="0,0,36.36645,35.68029"><g transform="translate(-221.81678,-162.15986)"><g data-paper-data="{&quot;isPaintingLayer&quot;:true}" fill-rule="nonzero" stroke-linejoin="miter" stroke-miterlimit="10" stroke-dasharray="" stroke-dashoffset="0" style="mix-blend-mode: normal"><path d="M254.11528,191.95879c0,1.67823 -6.23185,3.0387 -13.91924,3.0387c-7.68738,0 -13.91924,-1.36047 -13.91924,-3.0387c0,-1.67823 6.23185,-3.0387 13.91924,-3.0387c7.68738,0 13.91924,1.36047 13.91924,3.0387z" data-paper-data="{&quot;index&quot;:null}" fill-opacity="0.29839" fill="#000000" stroke="none" stroke-width="0" stroke-linecap="butt"/><path d="M228.28629,190.09636c0,-4.5086 0,-17.06582 0,-19.8006c0,-1.30722 0.99632,-2.00947 2.30354,-2.00947c2.74843,0 14.23133,0 19.01642,0c1.20878,0 2.10749,0.60465 2.10749,1.81343c0,2.46223 0,13.68869 0,18.91839c0,1.42606 -0.4854,2.69563 -1.91145,2.69563c-2.61887,0 -14.67606,0 -19.50653,0c-1.73473,0 -2.00947,-1.61738 -2.00947,-1.61738z" data-paper-data="{&quot;index&quot;:null}" fill="#c3b6b6" stroke="#000000" stroke-width="2.5" stroke-linecap="butt"/><path d="M237.35339,181.875h5.29323" data-paper-data="{&quot;index&quot;:null}" fill="none" stroke="#000000" stroke-width="2.5" stroke-linecap="round"/><path d="M221.81678,197.84015v-35.68029h36.36645v35.68029z" data-paper-data="{&quot;index&quot;:null}" fill="none" stroke="none" stroke-width="0" stroke-linecap="butt"/><g fill="#000000" stroke="none" stroke-width="0.5" stroke-linecap="butt"><path d="M243.10649,175.13849c0,-1.21807 0.98744,-2.20551 2.20551,-2.20551c1.21807,0 2.20551,0.98744 2.20551,2.20551c0,1.21807 -0.98744,2.20551 -2.20551,2.20551c-1.21807,0 -2.20551,-0.98744 -2.20551,-2.20551z" data-paper-data="{&quot;index&quot;:null}"/><path d="M232.48248,174.86151c0,-1.21807 0.98744,-2.20551 2.20551,-2.20551c1.21807,0 2.20551,0.98744 2.20551,2.20551c0,1.21807 -0.98744,2.20551 -2.20551,2.20551c-1.21807,0 -2.20551,-0.98744 -2.20551,-2.20551z" data-paper-data="{&quot;index&quot;:null}"/></g></g></g></svg>